<svg width="23" height="24" viewBox="0 0 23 24" fill="none" xmlns="http://www.w3.org/2000/svg">
<path d="M3.25085 7.98924C3.37527 7.8584 3.54229 7.78516 3.71621 7.78516C3.89012 7.78516 4.05714 7.8584 4.18156 7.98924L11.1465 15.2987L18.1101 7.98924C18.2345 7.8584 18.4015 7.78516 18.5754 7.78516C18.7493 7.78516 18.9164 7.8584 19.0408 7.98924C19.1014 8.05283 19.1497 8.12886 19.1826 8.21285C19.2155 8.29684 19.2325 8.38707 19.2325 8.47824C19.2325 8.5694 19.2155 8.65963 19.1826 8.74362C19.1497 8.82761 19.1014 8.90364 19.0408 8.96724L11.6328 16.7402C11.5027 16.8768 11.3282 16.9532 11.1465 16.9532C10.9648 16.9532 10.7904 16.8768 10.6603 16.7402L3.25225 8.96724C3.19158 8.90364 3.14336 8.82761 3.11043 8.74362C3.07751 8.65963 3.06055 8.5694 3.06055 8.47824C3.06055 8.38707 3.07751 8.29684 3.11043 8.21285C3.14336 8.12886 3.19158 8.05283 3.25225 7.98924H3.25085Z" fill="#818181"/>
</svg>
