<svg width="44" height="44" viewBox="0 0 44 44" fill="none" xmlns="http://www.w3.org/2000/svg">
<path fill-rule="evenodd" clip-rule="evenodd" d="M3.66699 11.0013C3.66699 6.95121 6.95024 3.66797 11.0003 3.66797H33.0003C37.0503 3.66797 40.3337 6.95121 40.3337 11.0013V33.0013C40.3337 37.0513 37.0503 40.3346 33.0003 40.3346H11.0003C6.95024 40.3346 3.66699 37.0513 3.66699 33.0013V11.0013ZM11.0003 7.33464C8.97528 7.33464 7.33366 8.97626 7.33366 11.0013V33.0013C7.33366 35.0264 8.97528 36.668 11.0003 36.668H22.0003V23.8346H20.167C19.1544 23.8346 18.3337 23.0139 18.3337 22.0013C18.3337 20.9888 19.1544 20.168 20.167 20.168H22.0003V17.418C22.0003 13.8741 24.8732 11.0013 28.417 11.0013H29.517C30.5295 11.0013 31.3503 11.8221 31.3503 12.8346C31.3503 13.8471 30.5295 14.668 29.517 14.668H28.417C26.8983 14.668 25.667 15.8992 25.667 17.418V20.168H29.517C30.5295 20.168 31.3503 20.9888 31.3503 22.0013C31.3503 23.0139 30.5295 23.8346 29.517 23.8346H25.667V36.668H33.0003C35.0254 36.668 36.667 35.0264 36.667 33.0013V11.0013C36.667 8.97626 35.0254 7.33464 33.0003 7.33464H11.0003Z" fill="#474747"/>
</svg>
