<svg width="40" height="40" viewBox="0 0 40 40" fill="none" xmlns="http://www.w3.org/2000/svg">
<path d="M19.0625 23.8125C19.0625 24.3437 19.5 24.75 20 24.75C20.5312 24.75 20.9375 24.3125 20.9375 23.8125V9.53125C20.9375 9 20.5 8.59375 20 8.59375C19.4688 8.59375 19.0625 9.03125 19.0625 9.53125V23.8125Z" fill="#474747"/>
<path d="M18.8125 18.4082C18.4688 18.002 17.875 17.9707 17.4688 18.3145C17.0625 18.6582 17.0312 19.252 17.375 19.6582L24.0312 27.2832C24.375 27.6895 24.9687 27.7207 25.375 27.377C25.7812 27.0332 25.8125 26.4395 25.4687 26.0332L18.8125 18.4082Z" fill="#474747"/>
<path d="M19.625 38.6875C9.3125 38.6875 0.9375 30.2812 0.9375 20C0.9375 9.71875 9.3125 1.34375 19.625 1.34375C29.9062 1.34375 38.3125 9.71875 38.3125 20.0312C38.2812 30.2812 29.9062 38.6875 19.625 38.6875ZM19.625 3.1875C10.3438 3.1875 2.78125 10.7188 2.78125 20C2.78125 29.2812 10.3438 36.8125 19.5938 36.8125C28.8438 36.8125 36.4062 29.25 36.4062 20C36.4062 10.75 28.875 3.1875 19.625 3.1875Z" fill="#474747"/>
</svg>
