<svg width="92" height="92" viewBox="0 0 92 92" fill="none" xmlns="http://www.w3.org/2000/svg">
<path d="M45.7676 91.5353C71.0444 91.5353 91.5353 71.0444 91.5353 45.7676C91.5353 20.4909 71.0444 0 45.7676 0C20.4909 0 0 20.4909 0 45.7676C0 71.0444 20.4909 91.5353 45.7676 91.5353Z" fill="#8DC5D6"/>
<mask id="mask0_14_344" style="mask-type:luminance" maskUnits="userSpaceOnUse" x="0" y="0" width="92" height="92">
<path d="M45.7676 91.5353C71.0444 91.5353 91.5353 71.0444 91.5353 45.7676C91.5353 20.4909 71.0444 0 45.7676 0C20.4909 0 0 20.4909 0 45.7676C0 71.0444 20.4909 91.5353 45.7676 91.5353Z" fill="white"/>
</mask>
<g mask="url(#mask0_14_344)">
<path d="M28.6001 47.4547C28.6001 54.9206 24.5036 55.1134 24.7951 60.0572C25.1195 65.532 29.3987 65.5446 29.3987 69.3086C29.3987 73.0712 25.4634 77.2904 28.9498 81.3426C44.2786 81.3426 45.7745 81.3426 45.7745 81.3426V35.6875L28.6001 47.4547Z" fill="#2E576D"/>
<path d="M62.9351 47.208C62.9351 54.6739 67.0323 54.8667 66.7402 59.8104C66.4164 65.2853 62.1372 65.2979 62.1372 69.0618C62.1372 72.8245 66.0718 77.0436 62.5861 81.0959C47.2567 81.0959 45.7607 81.0959 45.7607 81.0959V35.4414L62.9351 47.208Z" fill="#2E576D"/>
<path d="M45.7677 58.5157C56.116 58.5157 64.505 50.072 64.505 39.6563C64.505 29.2405 56.116 20.7969 45.7677 20.7969C35.4193 20.7969 27.0303 29.2405 27.0303 39.6563C27.0303 50.072 35.4193 58.5157 45.7677 58.5157Z" fill="#2E576D"/>
<path d="M67.6862 73.9372C64.736 68.3523 45.7679 64.8477 45.7679 64.8477C45.7679 64.8477 26.7997 68.3523 23.8495 73.9372C21.6688 81.6876 19.8447 91.5352 19.8447 91.5352H45.7679H71.691C71.691 91.5352 70.4587 80.9763 67.6862 73.9372Z" fill="#F1C9A5"/>
<path d="M45.7676 64.8477C45.7676 64.8477 64.7357 68.3523 67.6859 73.9372C70.4591 80.9763 71.6907 91.5352 71.6907 91.5352H45.7676V64.8477Z" fill="#E4B692"/>
<path d="M50.932 53.4922H40.6045V70.776H50.932V53.4922Z" fill="#F1C9A5"/>
<path d="M50.9313 53.4922H45.7676V70.776H50.9313V53.4922Z" fill="#E4B692"/>
<path opacity="0.1" d="M40.6045 61.5012C41.5333 64.1675 45.2814 65.6957 48.0343 65.6957C49.0301 65.6957 49.9994 65.5287 50.932 65.2234V53.4922H40.6045V61.5012Z" fill="#DDAC8C"/>
<path d="M59.0457 42.5865C59.0457 31.7911 53.101 25.6523 45.7679 25.6523C38.4349 25.6523 32.4902 31.7911 32.4902 42.5865C32.4902 53.3819 38.4349 62.1344 45.7679 62.1344C53.1004 62.1344 59.0457 53.3825 59.0457 42.5865Z" fill="#F1C9A5"/>
<path d="M57.0238 50.0714C54.6167 49.8033 52.9918 47.0472 53.3996 43.9181C53.8024 40.7865 56.0817 38.4616 58.49 38.7278C60.8958 38.9946 62.5182 41.7494 62.1123 44.8811C61.7083 48.0127 59.4308 50.3357 57.0238 50.0714Z" fill="#E4B692"/>
<path d="M29.5175 44.8811C29.1109 41.7494 30.734 38.994 33.1385 38.7278C35.5474 38.4616 37.8274 40.7865 38.2314 43.9181C38.6374 47.0472 37.0112 49.8039 34.606 50.0714C32.1983 50.3357 29.9209 48.0127 29.5175 44.8811Z" fill="#F1C9A5"/>
<path d="M59.0453 42.5865C59.0453 31.7911 53.1007 25.6523 45.7676 25.6523V62.1344C53.1 62.1344 59.0453 53.3825 59.0453 42.5865Z" fill="#E4B692"/>
<path d="M60.1415 41.369C60.1415 41.3368 60.1434 41.3058 60.1434 41.2742C60.1434 32.8998 54.4738 24.0625 46.5381 24.0625C38.6025 24.0625 31.4072 32.8991 31.4072 41.2736C31.4072 41.3058 31.4091 41.3368 31.4091 41.3684L60.1415 41.369Z" fill="#2E576D"/>
<path d="M71.691 91.5358C71.691 91.5358 70.4594 80.9769 67.6862 73.9378C66.0682 70.8744 59.6349 68.4395 54.1518 66.8633L45.7483 73.4591L37.0071 66.972C31.6107 68.5508 25.4302 70.9452 23.8495 73.9384C21.6688 81.6888 19.8447 91.5364 19.8447 91.5364H45.7679H71.691V91.5358Z" fill="#FA582A"/>
</g>
</svg>
