<svg width="90" height="90" viewBox="0 0 90 90" fill="none" xmlns="http://www.w3.org/2000/svg">
<g clip-path="url(#clip0_14_289)">
<path d="M44.8798 89.7577C69.6657 89.7577 89.7587 69.6648 89.7587 44.8789C89.7587 20.093 69.6657 0 44.8798 0C20.0939 0 0.000976562 20.093 0.000976562 44.8789C0.000976562 69.6648 20.0939 89.7577 44.8798 89.7577Z" fill="#F5C002"/>
<mask id="mask0_14_289" style="mask-type:luminance" maskUnits="userSpaceOnUse" x="0" y="0" width="90" height="90">
<path d="M44.8798 89.7577C69.6657 89.7577 89.7587 69.6648 89.7587 44.8789C89.7587 20.093 69.6657 0 44.8798 0C20.0939 0 0.000976562 20.093 0.000976562 44.8789C0.000976562 69.6648 20.0939 89.7577 44.8798 89.7577Z" fill="white"/>
</mask>
<g mask="url(#mask0_14_289)">
<path d="M66.3724 72.5029C63.4795 67.0265 44.8797 63.5898 44.8797 63.5898C44.8797 63.5898 26.2799 67.0265 23.387 72.5029C21.2486 80.1028 19.46 89.7591 19.46 89.7591H44.8797H70.2994C70.2994 89.7591 69.0911 79.4053 66.3724 72.5029Z" fill="#F1C9A5"/>
<path d="M44.8799 63.5898C44.8799 63.5898 63.4797 67.0265 66.3726 72.5029C69.0919 79.4053 70.2996 89.7591 70.2996 89.7591H44.8799V63.5898Z" fill="#E4B692"/>
<path d="M49.9434 52.457H39.8164V69.4052H49.9434V52.457Z" fill="#F1C9A5"/>
<path d="M49.9434 52.457H44.8799V69.4052H49.9434V52.457Z" fill="#E4B692"/>
<path opacity="0.1" d="M39.8164 60.3105C40.7272 62.925 44.4025 64.4235 47.102 64.4235C48.0784 64.4235 49.0283 64.2599 49.9434 63.9604V52.457H39.8164V60.3105Z" fill="#DDAC8C"/>
<path d="M57.8991 41.7615C57.8991 31.1758 52.0699 25.1562 44.8792 25.1562C37.6886 25.1562 31.8594 31.1758 31.8594 41.7615C31.8594 56.0003 37.6886 60.9299 44.8792 60.9299C52.0693 60.9299 57.8991 55.407 57.8991 41.7615Z" fill="#F1C9A5"/>
<path d="M55.917 49.1018C53.5567 48.8551 51.9633 46.3118 52.3632 43.4252C52.7582 40.536 54.9932 38.3908 57.3548 38.6363C59.7139 38.8818 61.3048 41.4238 60.9067 44.313C60.5106 47.2028 58.2773 49.3461 55.917 49.1018Z" fill="#E4B692"/>
<path d="M28.945 44.313C28.5463 41.4238 30.1378 38.8818 32.4957 38.6363C34.8578 38.3908 37.0935 40.5354 37.4897 43.4252C37.8884 46.3119 36.2931 48.8551 33.9347 49.1018C31.5737 49.3455 29.3405 47.2022 28.945 44.313Z" fill="#F1C9A5"/>
<path d="M57.8997 41.7615C57.8997 31.1758 52.0706 25.1562 44.8799 25.1562V60.9299C52.0699 60.9299 57.8997 55.407 57.8997 41.7615Z" fill="#E4B692"/>
<path d="M56.5916 50.6369C55.891 52.606 54.7062 54.9731 52.5654 54.9731C49.8895 54.9731 47.9755 52.7982 44.906 52.7982C44.8973 52.7982 44.8892 52.7994 44.8805 52.7994C44.8712 52.7994 44.8632 52.7982 44.8539 52.7982C41.7849 52.7982 39.8716 54.9731 37.1945 54.9731C35.0536 54.9731 33.8694 52.606 33.1689 50.6369L32.5625 46.8438V51.3827C32.5625 51.3827 33.5799 56.7283 35.5323 58.0197C37.1226 59.4327 42.3138 61.8532 44.8526 61.8532C44.8613 61.8532 44.8706 61.8519 44.8799 61.8519C44.8886 61.8519 44.8973 61.8532 44.9053 61.8532H44.9066C47.4461 61.8532 52.6373 59.4333 54.2269 58.0197C56.1793 56.7283 57.1967 51.3827 57.1967 51.3827V46.8438L56.5916 50.6369Z" fill="#303030"/>
<path d="M38.5752 27.1825C38.5752 27.1825 40.9932 36.9704 54.4669 41.9216C53.1996 39.7337 52.9696 37.0851 52.9696 37.0851C52.9696 37.0851 55.1575 39.3883 58.7268 41.231C60.6848 37.3163 62.9881 31.4431 57.8062 28.2192C52.6243 24.9946 40.3025 19.2361 38.5752 27.1825Z" fill="#303030"/>
<path d="M34.0844 41.115C34.0844 41.115 35.0844 29.9408 39.2477 27.4689C35.6963 25.9196 30.2844 30.6358 30.8598 33.5145C31.4357 36.3937 34.0844 41.115 34.0844 41.115Z" fill="#303030"/>
<path d="M66.3724 72.504C64.6823 69.3061 57.6416 66.8056 52.0722 65.2773C51.854 69.0655 48.723 72.0725 44.8797 72.0725C41.037 72.0725 37.9054 69.0655 37.6878 65.2773C32.1184 66.8056 25.0771 69.3061 23.387 72.504C21.2486 80.1039 19.46 89.7603 19.46 89.7603H44.8797H70.2994C70.2994 89.7603 69.0911 79.4064 66.3724 72.504Z" fill="#FB621E"/>
<path opacity="0.2" d="M37.2708 67.1373C37.5014 70.9255 40.814 73.9325 44.8793 73.9325C48.9452 73.9325 52.2572 70.9255 52.4879 67.1373C57.5923 68.461 63.8586 70.5157 66.6064 73.1203C66.5295 72.9119 66.4514 72.7061 66.3714 72.504C64.6813 69.3061 57.6407 66.8056 52.0713 65.2773C51.853 69.0655 48.722 72.0725 44.8787 72.0725C41.036 72.0725 37.9044 69.0655 37.6868 65.2773C32.1174 66.8056 25.0761 69.3061 23.386 72.504C23.3358 72.6832 23.2856 72.8648 23.2354 73.0459C26.0253 70.4772 32.2153 68.448 37.2708 67.1373Z" fill="#E53D0C"/>
<path d="M35.5693 65.8874C36.2749 70.401 40.1684 73.8581 44.8798 73.8581C49.5911 73.8581 53.4847 70.401 54.1902 65.8874C53.4704 65.6692 52.7599 65.4658 52.0723 65.2773C51.8541 69.0655 48.7231 72.0725 44.8798 72.0725C41.0371 72.0725 37.9055 69.0655 37.6879 65.2773C36.9997 65.4658 36.2891 65.6692 35.5693 65.8874Z" fill="#E53D0C"/>
<path d="M46.9978 56.2082C46.9978 56.2082 46.6878 54.8281 44.8793 54.8281C43.2257 54.8281 42.7607 56.2082 42.7607 56.2082H46.9978Z" fill="white"/>
</g>
</g>
<defs>
<clipPath id="clip0_14_289">
<rect width="89.7583" height="89.7583" fill="white"/>
</clipPath>
</defs>
</svg>
