<svg width="93" height="92" viewBox="0 0 93 92" fill="none" xmlns="http://www.w3.org/2000/svg">
<mask id="mask0_14_318" style="mask-type:luminance" maskUnits="userSpaceOnUse" x="0" y="0" width="93" height="92">
<path d="M46.166 92C71.6628 92 92.332 71.4051 92.332 46C92.332 20.5949 71.6628 0 46.166 0C20.6692 0 0 20.5949 0 46C0 71.4051 20.6692 92 46.166 92Z" fill="white"/>
</mask>
<g mask="url(#mask0_14_318)">
<path d="M65.1611 40.3134C65.1611 29.6945 56.5224 18.4922 45.8652 18.4922C35.208 18.4922 26.5693 29.6945 26.5693 40.3134C26.5693 50.9323 35.208 59.5399 45.8652 59.5399C56.5224 59.5392 65.1611 50.9316 65.1611 40.3134Z" fill="#583A2F"/>
<path d="M35.0625 81.2432H59.5607C59.5607 81.2432 62.0608 54.6483 61.7419 44.1152C61.423 33.582 51.3245 27.1211 42.2898 27.1211C33.255 27.1211 23.9014 67.7443 35.0625 81.2432Z" fill="#583A2F"/>
<path d="M68.2755 74.3172C66.3067 70.6034 57.2688 67.8061 51.3751 66.3375V53.7695H40.9577V66.3375C35.064 67.8061 26.0261 70.6034 24.0572 74.3172C21.8576 82.1069 20.0176 92.0046 20.0176 92.0046H46.1664H72.3152C72.3152 92.0046 71.0721 81.392 68.2755 74.3172Z" fill="#F1C9A5"/>
<path d="M68.2751 74.3172C66.3063 70.6034 57.2684 67.8061 51.3747 66.3375V53.7695H46.166V65.1815V71.1411V92.0046H72.3148C72.3148 92.0046 71.0718 81.392 68.2751 74.3172Z" fill="#E4B692"/>
<path opacity="0.1" d="M40.959 61.8192C41.8959 64.499 45.6766 66.035 48.4535 66.035C49.458 66.035 50.4351 65.8672 51.3764 65.5603V53.7695H40.959V61.8192Z" fill="#DDAC8C"/>
<path d="M59.559 42.8053C59.559 31.9551 53.5627 25.7852 46.1657 25.7852C38.7688 25.7852 32.7725 31.9551 32.7725 42.8053C32.7725 53.6555 38.7688 62.4525 46.1657 62.4525C53.562 62.4525 59.559 53.6561 59.559 42.8053Z" fill="#F1C9A5"/>
<path d="M57.5202 50.3273C55.0922 50.0947 53.4531 47.6964 53.8638 44.9746C54.2701 42.2503 56.5693 40.2276 58.9986 40.4595C61.4253 40.6915 63.0618 43.0885 62.6524 45.8128C62.2455 48.5371 59.9482 50.558 57.5202 50.3273Z" fill="#E4B692"/>
<path d="M29.2231 45.8166C28.813 43.0923 30.4502 40.6953 32.8756 40.4633C35.3062 40.232 37.6054 42.2541 38.0129 44.9784C38.423 47.7002 36.782 50.0985 34.3559 50.3311C31.9273 50.5618 29.6306 48.5409 29.2231 45.8166Z" fill="#F1C9A5"/>
<path d="M59.5593 42.8053C59.5593 31.9551 53.5629 25.7852 46.166 25.7852V62.4525C53.5623 62.4525 59.5593 53.6561 59.5593 42.8053Z" fill="#E4B692"/>
<path d="M51.3751 66.3349V63.5C49.6913 63.6443 47.9502 63.7205 46.1664 63.7205C44.3825 63.7205 42.6414 63.6443 40.9577 63.5V66.3349C35.064 67.8035 26.0261 70.6009 24.0572 74.3146C21.8576 82.1044 20.0176 92.002 20.0176 92.002H46.1664H72.3152C72.3152 92.002 71.0728 81.3895 68.2755 74.3146C66.3067 70.6009 57.2688 67.8029 51.3751 66.3349Z" fill="#C51C39"/>
<path d="M39.7793 66.5273C39.7793 66.5328 39.7793 66.5376 39.7793 66.5424" stroke="white" stroke-width="1.4308" stroke-linecap="round" stroke-linejoin="round"/>
<path d="M39.8994 67.7493C40.4734 70.6757 43.0609 72.8834 46.1668 72.8834C49.4852 72.8834 52.2123 70.3618 52.5229 67.1367" stroke="white" stroke-width="1.4308" stroke-linecap="round" stroke-linejoin="round" stroke-dasharray="0.05 1.92"/>
<path d="M52.5518 66.5424C52.5518 66.537 52.5518 66.5322 52.5518 66.5273" stroke="white" stroke-width="1.4308" stroke-linecap="round" stroke-linejoin="round"/>
<path d="M26.5699 40.3164C26.5699 40.3164 24.2177 79.1933 22.4639 92.004H35.8571L33.1351 55.9283" fill="#583A2F"/>
<path d="M65.1603 40.3164C65.1603 40.3164 67.5124 79.1933 69.2663 92.004H55.873L57.6467 58.0006" fill="#583A2F"/>
<path d="M46.9371 23.6094C38.9324 23.6094 31.6738 32.4915 31.6738 40.9085C31.6738 40.9409 31.6757 40.972 31.6757 41.0038H39.2353L39.9509 35.3868V41.0038H47.6042V35.3868L48.9461 41.0038H53.8021V36.34L54.9667 41.0038H60.6582C60.6582 40.9714 60.6601 40.9402 60.6601 40.9085C60.6601 32.4915 54.9411 23.6094 46.9371 23.6094Z" fill="#583A2F"/>
</g>
</svg>
