<svg width="53" height="53" viewBox="0 0 53 53" fill="none" xmlns="http://www.w3.org/2000/svg">
<path d="M33.862 8.28125H19.1363C16.258 8.28344 13.4983 9.4278 11.463 11.463C9.4278 13.4983 8.28344 16.258 8.28125 19.1363V33.862C8.283 36.7406 9.42717 39.5008 11.4625 41.5364C13.4978 43.572 16.2578 44.7166 19.1363 44.7188H33.862C36.7405 44.7161 39.5002 43.5714 41.5354 41.5359C43.5706 39.5004 44.7149 36.7405 44.7171 33.862V19.1363C44.7158 16.2578 43.5717 13.4975 41.5363 11.4621C39.5008 9.42664 36.7406 8.28257 33.862 8.28125ZM41.0535 33.862C41.053 35.7692 40.2952 37.5981 38.9467 38.9467C37.5981 40.2952 35.7692 41.053 33.862 41.0535H19.1363C18.192 41.0535 17.2569 40.8674 16.3845 40.506C15.5121 40.1446 14.7194 39.6149 14.0518 38.947C13.3841 38.2792 12.8546 37.4864 12.4933 36.6139C12.1321 35.7415 11.9463 34.8063 11.9465 33.862V19.1363C11.9463 18.1921 12.1321 17.257 12.4934 16.3846C12.8546 15.5122 13.3842 14.7196 14.0519 14.0519C14.7196 13.3842 15.5122 12.8546 16.3846 12.4934C17.257 12.1321 18.1921 11.9463 19.1363 11.9465H33.862C35.7687 11.947 37.5972 12.7046 38.9455 14.0529C40.2937 15.4011 41.0514 17.2296 41.0518 19.1363L41.0535 33.862Z" fill="#474747"/>
<path d="M26.4999 17.0785C21.3025 17.0785 17.0791 21.3036 17.0791 26.4993C17.0791 31.6949 21.3042 35.92 26.4999 35.92C31.6955 35.92 35.9206 31.6949 35.9206 26.4993C35.9206 21.3036 31.6972 17.0785 26.4999 17.0785ZM26.4999 32.2548C24.9734 32.255 23.5094 31.6488 22.4299 30.5696C21.3504 29.4904 20.7438 28.0266 20.7436 26.5001C20.7433 24.9737 21.3495 23.5097 22.4287 22.4301C23.5079 21.3506 24.9717 20.744 26.4982 20.7438C28.0246 20.7436 29.4887 21.3498 30.5682 22.429C31.6477 23.5082 32.2543 24.972 32.2545 26.4985C32.2547 28.0249 31.6485 29.4889 30.5693 30.5684C29.4901 31.6479 28.0263 32.2545 26.4999 32.2548ZM35.9405 14.8906C36.3868 14.891 36.823 15.0236 37.194 15.2718C37.565 15.5199 37.8541 15.8725 38.0248 16.285C38.1954 16.6974 38.24 17.1512 38.1528 17.5889C38.0657 18.0267 37.8507 18.4288 37.5351 18.7444C37.2195 19.06 36.8174 19.2749 36.3796 19.3621C35.9419 19.4493 35.4881 19.4047 35.0757 19.234C34.6633 19.0634 34.3107 18.7743 34.0625 18.4033C33.8143 18.0323 33.6817 17.5961 33.6814 17.1497C33.6814 15.9042 34.526 14.8906 35.9405 14.8906Z" fill="#474747"/>
</svg>
