<svg width="70" height="67" viewBox="0 0 70 67" fill="none" xmlns="http://www.w3.org/2000/svg">
<path d="M59.7921 59.8389C59.0412 63.4187 55.7782 65.8999 52.4324 66.4408C49.0873 66.9817 45.6947 65.9305 42.5624 64.5456C42.4217 64.4834 42.2812 64.4205 42.141 64.357C37.6183 62.3095 32.3771 62.3096 27.8544 64.3571C27.7142 64.4205 27.5739 64.4834 27.4332 64.5455C24.3009 65.9305 20.9083 66.9817 17.5626 66.4408C14.2168 65.8999 10.9544 63.4187 10.2035 59.8389C9.43863 56.195 11.3879 52.4796 13.8739 49.8939C16.36 47.3082 19.4175 45.4274 21.8422 42.7741C23.9798 40.4355 25.5545 37.5756 27.373 34.938C28.4408 33.3887 29.6772 31.9706 31.3782 31.0642C33.6207 29.8692 36.375 29.8692 38.6174 31.0643C40.3182 31.9707 41.5545 33.3887 42.6225 34.938C44.4404 37.5756 46.0157 40.4355 48.1528 42.7741C50.5775 45.4274 53.635 47.3082 56.1211 49.8939C58.6071 52.4796 60.5563 56.1951 59.7921 59.8389Z" fill="#7C9699"/>
<path d="M30.4258 23.7139C28.4281 25.6116 24.9763 25.9681 22.2606 24.9723C18.6038 23.6308 16.303 20.2018 15.9138 16.738C15.5252 13.2741 16.7966 9.80544 18.6594 6.733C19.4476 5.43307 21.4426 3.26953 24.0088 3.26953C28.7319 3.26953 32.4315 9.23904 32.6332 16.7651C32.6921 18.9629 32.1253 22.1007 30.4258 23.7139Z" fill="#7C9699"/>
<path d="M17.7749 38.2166C16.4329 40.5637 13.2448 41.8302 10.3562 41.6081C6.46631 41.3091 3.24981 38.6538 1.84771 35.4521C0.446248 32.2503 0.626805 28.5982 1.4904 25.1662C1.85635 23.7135 3.11644 21.1132 5.56586 20.425C10.0736 19.1573 15.3813 23.8624 17.8136 30.9918C18.5243 33.0738 18.9169 36.2211 17.7749 38.2166Z" fill="#7C9699"/>
<path d="M39.5699 23.7139C41.5676 25.6116 45.0194 25.9681 47.7351 24.9723C51.3919 23.6308 53.6926 20.2018 54.0819 16.738C54.4705 13.2741 53.1992 9.80544 51.3363 6.733C50.5481 5.43307 48.5531 3.26953 45.9869 3.26953C41.2638 3.26953 37.5642 9.23904 37.3625 16.7651C37.3036 18.9629 37.8704 22.1007 39.5699 23.7139Z" fill="#7C9699"/>
<path d="M52.2213 38.2166C53.5633 40.5637 56.7514 41.8302 59.64 41.6081C63.5299 41.3091 66.7464 38.6538 68.1485 35.4521C69.55 32.2503 69.3694 28.5982 68.5058 25.1662C68.1399 23.7135 66.8798 21.1132 64.4304 20.425C59.9226 19.1573 54.6149 23.8624 52.1826 30.9918C51.4719 33.0738 51.0793 36.2211 52.2213 38.2166Z" fill="#7C9699"/>
<path d="M55.2457 45.336C53.4473 43.7478 51.4867 42.3286 49.7697 40.657C48.0451 38.9782 46.7074 37.007 45.4185 35.0178C44.168 33.0876 42.9928 31.0318 41.2773 29.4284C39.5208 27.7866 37.1515 26.8459 34.6724 26.9491C33.4002 27.002 32.1407 27.2818 31.0053 27.8385C29.9835 28.3396 29.0793 29.0334 28.3044 29.8366C26.6539 31.5475 25.4854 33.6364 24.2015 35.5952C22.8993 37.5818 21.5038 39.4854 19.7331 41.1245C17.9738 42.7532 16.0101 44.1669 14.2455 45.7902C12.5705 47.3311 11.1086 49.0843 10.1813 51.1303C9.27441 53.1313 8.88698 55.387 9.49177 57.5179C10.0271 59.4039 11.2602 61.0464 12.9162 62.2C14.7201 63.4566 16.8627 64.0707 19.0886 64.1283C21.7995 64.1984 24.4568 63.4462 26.9271 62.446C28.0539 61.9899 29.1473 61.4418 30.2922 61.0881C31.461 60.727 32.4719 60.5293 33.6904 60.4217C33.7753 60.4142 33.8603 60.4078 33.9452 60.4011C33.9679 60.3994 33.9856 60.398 33.9995 60.3969C34.1336 60.3888 34.2679 60.383 34.4021 60.3784C34.7142 60.3677 35.0265 60.3654 35.3387 60.3715C35.4806 60.3743 35.6224 60.3788 35.7642 60.385C35.8353 60.3882 35.9063 60.3918 35.9773 60.3959C36.0047 60.398 36.0737 60.4028 36.0934 60.4043C36.4051 60.428 36.7161 60.4599 37.0259 60.5002C38.141 60.6453 39.2598 60.9083 40.3484 61.3017C41.5358 61.7308 42.6592 62.3048 43.8421 62.7472C45.1058 63.2197 46.3949 63.6082 47.7283 63.8582C50.1469 64.3119 52.7063 64.2394 54.9989 63.3262C56.8525 62.5879 58.491 61.302 59.5423 59.6695C60.0714 58.8479 60.4305 57.942 60.6329 56.9994C61.0813 54.806 60.5602 52.5474 59.5399 50.5621C58.5046 48.5478 56.9639 46.8532 55.2457 45.336ZM55.9604 61.568C55.2259 62.1287 54.4549 62.5478 53.5569 62.877C53.5483 62.8801 53.5419 62.8825 53.5369 62.8844C53.5275 62.8875 53.5165 62.8911 53.5037 62.8953C53.4609 62.9094 53.4182 62.9239 53.3754 62.9377C53.2685 62.9722 53.161 63.0048 53.0528 63.0355C52.8356 63.0972 52.6158 63.1508 52.3943 63.1965C52.3713 63.2008 52.3272 63.2091 52.3078 63.2125C52.2452 63.2233 52.1826 63.2335 52.1198 63.2431C51.9708 63.2659 51.8213 63.2857 51.6714 63.3024C51.5222 63.319 51.3726 63.333 51.2227 63.3435C51.2614 63.3408 51.353 63.3377 51.1768 63.3459C51.0721 63.3507 50.9673 63.3545 50.8625 63.3569C50.5778 63.3631 50.2941 63.3566 50.0096 63.3464C49.9796 63.3454 49.9578 63.3447 49.9418 63.3443C49.9259 63.3429 49.9041 63.3412 49.8743 63.3389C49.8145 63.3344 49.7547 63.3298 49.695 63.3247C49.5154 63.3092 49.3363 63.2902 49.1576 63.268C48.5309 63.1902 48.0413 63.096 47.4431 62.9491C46.2476 62.6555 45.0899 62.2473 43.9596 61.7775C42.8005 61.2958 41.6794 60.7629 40.4704 60.396C39.3198 60.0468 38.1238 59.8103 36.9224 59.6926C34.4695 59.4525 31.9632 59.6694 29.6081 60.3713C28.4134 60.7274 27.3058 61.245 26.1644 61.7243C25.0354 62.1983 23.8801 62.6141 22.6862 62.916C22.0894 63.0669 21.6221 63.1621 21.0177 63.2447C20.3428 63.3369 19.93 63.3667 19.2683 63.3592C19.1186 63.3575 18.9689 63.3528 18.8193 63.3458C18.6431 63.3377 18.7346 63.3408 18.7733 63.3435C18.6835 63.3372 18.5937 63.3296 18.504 63.321C18.2078 63.2927 17.916 63.2469 17.6226 63.2009C17.6186 63.2002 17.6151 63.1997 17.612 63.1992C17.6065 63.198 17.6006 63.1967 17.5942 63.1954C17.5506 63.186 17.507 63.177 17.4635 63.1673C17.3544 63.143 17.2458 63.1167 17.1378 63.0886C16.9062 63.0281 16.677 62.9589 16.4513 62.8811C16.4348 62.8753 16.414 62.8679 16.4072 62.8653C16.3439 62.8413 16.2803 62.8176 16.2172 62.7927C16.1118 62.7511 16.0072 62.7078 15.9035 62.6626C15.6844 62.5672 15.4693 62.464 15.2585 62.3531C14.8645 62.1459 14.5215 61.929 14.1452 61.6504C13.3994 61.098 12.7479 60.4435 12.2277 59.6928C11.0541 57.9992 10.6711 55.9792 10.9867 53.9849C11.318 51.8913 12.374 49.9323 13.7144 48.2611C15.1192 46.5098 16.9246 45.0894 18.6729 43.6614C20.4949 42.1732 22.249 40.6383 23.6964 38.806C25.1668 36.9445 26.3706 34.9121 27.6783 32.9484C28.8343 31.2126 30.1313 29.4394 32.0832 28.4405C32.5853 28.1836 33.0276 28.0183 33.5648 27.8862C34.0558 27.7654 34.512 27.7148 34.9984 27.7148C35.1207 27.7148 35.2427 27.7204 35.3649 27.7235C35.3728 27.7237 35.3791 27.7238 35.3846 27.7239C35.3962 27.7251 35.4099 27.7265 35.4261 27.7282C35.4937 27.7349 35.5613 27.7404 35.6289 27.7479C35.9552 27.7837 36.0993 27.808 36.3526 27.8671C36.9109 27.9976 37.3619 28.1619 37.8768 28.4218C39.8339 29.4099 41.138 31.1782 42.2944 32.9127C43.5955 34.8641 44.7918 36.8844 46.2473 38.7391C47.6893 40.5765 49.435 42.1183 51.2576 43.6078C53.0068 45.0374 54.8177 46.4545 56.2326 48.2003C57.5818 49.8651 58.6468 51.8184 58.9972 53.9086C59.1692 54.9343 59.1608 55.9794 58.9522 56.9996C58.5642 58.8056 57.4669 60.4181 55.9604 61.568Z" fill="#383838"/>
<path d="M24.8425 0.807299C24.8202 0.802712 24.7985 0.797155 24.7791 0.789622C24.7782 0.789435 24.7773 0.789249 24.7764 0.789062C24.8235 0.80935 24.8514 0.812669 24.8425 0.807299Z" fill="#383838"/>
<path d="M17.3414 19.2457C18.7354 20.9627 20.7008 22.1837 22.9231 22.684C24.125 22.9546 25.4065 23.0167 26.6322 22.8751C27.798 22.7405 28.9561 22.4411 29.9736 21.8709C30.4267 21.6171 30.8488 21.3085 31.2225 20.957C31.947 20.2615 32.4169 19.367 32.7538 18.4517C33.1098 17.4846 33.3127 16.4663 33.4071 15.4472C33.5054 14.386 33.459 13.3188 33.3544 12.2596C33.2439 11.1401 33.0517 10.0271 32.766 8.93563C32.2703 7.04116 31.4972 5.16498 30.306 3.56298C29.329 2.24894 28.0282 1.12172 26.4159 0.570041C24.3588 -0.133895 21.9842 0.134234 20.2169 1.36987C19.4404 1.91283 18.7618 2.57534 18.2107 3.32683C17.5461 4.23309 17.0306 5.26546 16.5678 6.27523C15.5164 8.56931 14.8535 11.0641 15.0587 13.5802C15.2251 15.6204 16.0244 17.6237 17.3414 19.2457ZM17.5884 7.79807C18.0059 6.65088 18.5437 5.5459 19.1571 4.48177C19.5883 3.73352 20.0747 3.04004 20.7 2.42358C21.0167 2.11139 21.3578 1.81806 21.7299 1.56622C21.9329 1.42875 22.1438 1.30152 22.362 1.18696C22.4679 1.13139 22.5755 1.07883 22.6847 1.02959C22.7184 1.01439 22.7525 0.999941 22.7863 0.985006C22.7853 0.985457 22.8217 0.97022 22.8336 0.965066C22.8602 0.955021 22.9378 0.925602 22.9684 0.914692C23.0827 0.873872 23.1985 0.836928 23.3156 0.804122C23.3486 0.794904 23.5317 0.753107 23.3952 0.781624C23.4601 0.768043 23.5248 0.753822 23.5901 0.741858C23.6266 0.735199 23.7583 0.694681 23.7879 0.70988C23.7889 0.710369 23.6429 0.724477 23.7339 0.717969C23.7627 0.7159 23.7915 0.711912 23.8202 0.709316C23.8763 0.704312 23.9397 0.708488 23.9944 0.697013C23.7936 0.738999 23.9777 0.699722 24.051 0.700211C24.0798 0.7004 24.1085 0.701152 24.1372 0.701754C24.2266 0.708262 24.3157 0.716201 24.4049 0.724967C24.4404 0.730572 24.4761 0.73535 24.5116 0.741257C24.6009 0.756192 24.6897 0.773385 24.7781 0.792609C24.7763 0.791782 24.7746 0.791067 24.7727 0.790202C24.7752 0.791368 24.7782 0.792083 24.7808 0.793136C24.7821 0.793437 24.7834 0.793663 24.7847 0.793926C24.8193 0.801488 24.8371 0.807734 24.8424 0.810969C24.8649 0.815785 24.8876 0.819998 24.9073 0.825416C24.997 0.85002 25.086 0.876807 25.1743 0.9057C25.2503 0.930568 25.3257 0.956978 25.4006 0.984855C25.4378 0.998738 25.4999 1.02413 25.4794 1.01537C25.5095 1.02789 25.5397 1.04031 25.5696 1.05329C25.9088 1.20054 26.2331 1.37777 26.5407 1.57796C26.7118 1.68932 26.8211 1.76738 26.9555 1.87156C27.1095 1.99089 27.2586 2.11579 27.4031 2.24536C27.705 2.51612 27.9863 2.80735 28.2486 3.11299C29.4526 4.51589 30.2674 6.19784 30.8215 7.91977C31.4745 9.94911 31.8101 12.1038 31.8146 14.2258C31.8166 15.1785 31.7133 16.1345 31.5067 17.0668C31.2988 18.0051 30.9856 18.9352 30.4741 19.7664C30.2387 20.1489 29.9609 20.506 29.6326 20.8212C29.2859 21.1473 28.9009 21.4231 28.4773 21.6533C28.0147 21.9047 27.667 22.0421 27.154 22.1879C27.0993 22.2035 27.0443 22.2185 26.9891 22.2328C26.9599 22.2405 26.8932 22.2559 26.8888 22.2572C26.773 22.2826 26.6571 22.3072 26.5402 22.3283C26.474 22.3403 26.4076 22.3514 26.3411 22.3618C26.3292 22.3636 26.29 22.3695 26.2573 22.3744C26.2285 22.3776 26.1329 22.3896 26.1073 22.3923C26.0399 22.3995 25.9724 22.4058 25.9048 22.4113C25.8371 22.4169 25.7693 22.4218 25.7015 22.4259C25.6941 22.4263 25.6866 22.4267 25.6791 22.4271C25.5496 22.4151 25.4093 22.4339 25.2787 22.4326C25.2288 22.4321 25.1789 22.4308 25.1289 22.4295C25.106 22.4276 25.0818 22.4283 25.0594 22.427C24.9231 22.4192 24.787 22.4084 24.6512 22.3947C24.5948 22.389 24.5386 22.3818 24.4822 22.3759C24.4593 22.3726 24.4363 22.3695 24.4133 22.366C24.2788 22.346 24.1447 22.3229 24.0113 22.2969C23.9542 22.2858 23.8973 22.2741 23.8404 22.2619C23.8026 22.2538 23.7648 22.2453 23.7271 22.2368C23.7242 22.2361 23.7119 22.2331 23.6995 22.2301C23.6703 22.2224 23.6013 22.2046 23.5848 22.2002C23.5104 22.1803 23.4364 22.1596 23.3626 22.1378C22.851 21.9868 22.4718 21.8339 22.0015 21.5979C21.0875 21.1392 20.2697 20.5349 19.5644 19.8181C18.1664 18.3972 17.2282 16.5905 16.8575 14.6806C16.411 12.3793 16.7904 9.99087 17.5884 7.79807Z" fill="#383838"/>
<path d="M11.413 39.1942C13.6806 39.0921 16.056 38.3164 17.6309 36.7058C17.9916 36.3369 18.3106 35.93 18.566 35.4886C19.0837 34.5707 19.278 33.5025 19.3107 32.4709C19.3449 31.3955 19.2075 30.3138 18.955 29.2664C18.6904 28.1685 18.2891 27.1014 17.828 26.065C17.3726 25.0415 16.8417 24.0474 16.228 23.1011C15.159 21.4524 13.8283 19.893 12.1796 18.7367C10.7156 17.7098 9.00241 17.0054 7.16139 16.9774C6.19461 16.9627 5.20696 17.1425 4.33338 17.5406C3.40088 17.9656 2.64192 18.6571 2.04228 19.4476C0.838613 21.0343 0.428884 22.9801 0.170629 24.8843C-0.168454 27.3846 -0.0399608 29.9726 0.900305 32.3503C1.66528 34.2848 3.04186 36.019 4.80373 37.2353C6.70395 38.5471 9.05131 39.3006 11.413 39.1942ZM10.754 38.3873C10.697 38.3855 10.64 38.3827 10.583 38.3804C10.5735 38.3801 10.5511 38.3786 10.5362 38.3776C10.5247 38.3766 10.5162 38.376 10.5143 38.3758C10.2573 38.3544 10.0012 38.3225 9.74707 38.2804C9.67919 38.2692 9.61148 38.2571 9.54389 38.2444C9.52617 38.2411 9.44907 38.2251 9.42082 38.2196C9.3793 38.2101 9.32398 38.1976 9.3096 38.1941C9.24331 38.1785 9.17719 38.1621 9.11125 38.145C8.85819 38.0795 8.6081 38.0039 8.36173 37.9185C8.29809 37.8964 8.23526 37.8724 8.17166 37.8503C8.16948 37.8495 8.1679 37.849 8.166 37.8483C8.15158 37.8427 8.13715 37.8371 8.12273 37.8314C7.99812 37.7819 7.87466 37.73 7.75235 37.6756C7.51703 37.5711 7.28611 37.4576 7.06019 37.3358C6.95159 37.2773 6.84417 37.2167 6.73791 37.1544C6.6889 37.1257 6.64016 37.0965 6.59166 37.067C6.56741 37.0522 6.54325 37.0374 6.51912 37.0224C6.52165 37.024 6.45754 36.9833 6.43559 36.9696C6.42323 36.9615 6.40972 36.9526 6.40869 36.952C6.38519 36.9362 6.3615 36.9207 6.338 36.9049C6.28317 36.8682 6.22865 36.8309 6.1746 36.7931C6.06652 36.7176 5.95985 36.6402 5.85486 36.5608C5.45784 36.2606 5.08342 35.9338 4.73439 35.584C4.37102 35.2199 4.10123 34.9072 3.80233 34.5051C3.50742 34.1083 3.2412 33.6922 3.007 33.2605C1.8834 31.1889 1.5457 28.8179 1.65989 26.5115C1.72008 25.2954 1.90444 24.0862 2.1751 22.8968C2.20802 22.752 2.24226 22.6075 2.27776 22.4632C2.29254 22.4032 2.30807 22.3432 2.32297 22.2832C2.32309 22.2827 2.32312 22.2825 2.32324 22.2821C2.32665 22.2698 2.33002 22.2576 2.33355 22.2454C2.37986 22.0864 2.43078 21.9287 2.48732 21.7727C2.61747 21.4135 2.77343 21.0625 2.95295 20.723C3.14797 20.3543 3.37108 19.9984 3.62514 19.6635C3.6894 19.5788 3.75581 19.4956 3.824 19.4136C3.82626 19.4109 3.82788 19.4089 3.82963 19.4068C3.83188 19.4043 3.83446 19.4014 3.83767 19.3977C3.85403 19.3791 3.8704 19.3604 3.88692 19.3419C3.92559 19.2986 3.96493 19.2559 4.00487 19.2137C4.15971 19.0499 4.32387 18.8939 4.49773 18.7482C4.58193 18.6777 4.66838 18.6096 4.75701 18.5443C4.80492 18.509 4.85337 18.4744 4.90254 18.4407C4.92366 18.4263 4.9451 18.4122 4.9663 18.3979C4.96665 18.3976 4.96685 18.3975 4.96721 18.3973C4.96741 18.3972 4.96749 18.3971 4.96768 18.397C5.16793 18.2758 5.37377 18.1653 5.59042 18.0725C5.62885 18.056 5.68052 18.0361 5.67565 18.0375C5.71638 18.0229 5.75719 18.0085 5.79835 17.9951C5.90292 17.9609 6.00883 17.9306 6.11565 17.9035C6.15448 17.8937 6.1935 17.8846 6.23245 17.8752C6.23408 17.8749 6.23534 17.8745 6.23689 17.8741C6.32009 17.8589 6.40326 17.8439 6.4871 17.8318C6.57233 17.8195 6.65787 17.8092 6.74365 17.8009C6.76231 17.7991 6.78105 17.7976 6.7998 17.7961C6.81414 17.7952 6.82848 17.7942 6.84279 17.7937C7.013 17.7868 7.18282 17.7893 7.35296 17.7959C7.38319 17.7985 7.41342 17.801 7.44357 17.804C7.53752 17.8134 7.63122 17.8249 7.72461 17.8385C7.81205 17.8513 7.89914 17.8659 7.98592 17.8822C7.99071 17.8831 7.9955 17.884 8.0003 17.8849C8.03727 17.8939 8.07495 17.9012 8.11175 17.91C8.29497 17.9539 8.47616 18.0052 8.65493 18.0632C8.74261 18.0917 8.82938 18.1224 8.91612 18.1534C8.92135 18.1552 8.92535 18.1566 8.92963 18.1582C8.9767 18.1772 9.02405 18.1957 9.07092 18.2151C9.4421 18.3692 9.80064 18.5499 10.1459 18.751C10.2321 18.8012 10.3175 18.8526 10.4021 18.9053C10.4448 18.9319 10.5167 18.9798 10.4307 18.9229C10.4828 18.9574 10.5353 18.9913 10.5872 19.0262C10.7588 19.1418 10.9269 19.262 11.0916 19.3864C11.4489 19.6563 11.7897 19.9457 12.1152 20.2497C12.8359 20.9228 13.4096 21.5843 13.9803 22.3563C15.2723 24.1042 16.2502 26.0571 16.9587 28.0806C17.6081 29.9356 17.9334 32.0727 17.4763 34.0148C17.3751 34.4443 17.2062 34.8777 16.9833 35.2728C16.7377 35.6973 16.4832 36.0284 16.1569 36.3534C15.9845 36.5251 15.8012 36.6871 15.6094 36.8391C15.5163 36.9128 15.4211 36.9842 15.3242 37.0532C15.2792 37.0852 15.2339 37.1167 15.1882 37.1477C15.1653 37.1632 15.1422 37.1784 15.1192 37.1938C15.1094 37.2003 15.1038 37.2042 15.1006 37.2064C15.0954 37.2096 15.0905 37.2127 15.0841 37.2166C14.6622 37.4772 14.2187 37.692 13.757 37.8808C13.7297 37.8909 13.7024 37.9011 13.6749 37.9109C13.621 37.9302 13.5669 37.9491 13.5126 37.9674C13.3857 38.0102 13.2576 38.0502 13.1287 38.0873C13.0089 38.1219 12.8882 38.154 12.7668 38.1836C12.7014 38.1996 12.6358 38.2145 12.5701 38.2294C12.569 38.2297 12.5675 38.23 12.5658 38.2304C12.545 38.2345 12.5195 38.2395 12.5116 38.241C12.2566 38.29 11.9993 38.3283 11.7407 38.3556C11.6833 38.3617 11.6259 38.3672 11.5684 38.3722C11.538 38.3748 11.5041 38.375 11.4731 38.3787C11.3575 38.3838 11.242 38.389 11.1262 38.3905C11.002 38.3919 10.878 38.391 10.754 38.3873Z" fill="#383838"/>
<path d="M44.3419 1.21492C44.329 1.21925 44.316 1.22358 44.3031 1.22776C44.2989 1.22925 44.2946 1.23086 44.29 1.23257C44.3318 1.21946 44.3457 1.21415 44.3419 1.21492Z" fill="#383838"/>
<path d="M37.9337 19.9465C38.1911 20.3649 38.4991 20.7617 38.8583 21.1065C40.5055 22.6555 42.9794 23.2506 45.2451 23.1034C47.6337 22.9482 49.875 22.0232 51.5971 20.4355C53.1776 18.9784 54.2349 17.0784 54.7103 15.0443C55.2646 12.6723 54.9053 10.1838 54.1087 7.90039C53.6838 6.6827 53.1259 5.50887 52.4823 4.38188C52.0199 3.57211 51.4959 2.81415 50.8226 2.14622C50.0625 1.39233 49.1553 0.776311 48.1331 0.387568C47.1115 -0.000948667 45.9722 -0.0881925 44.8901 0.0847911C43.1779 0.358525 41.6752 1.27559 40.5318 2.49497C39.2073 3.90747 38.2989 5.6387 37.6809 7.42568C36.9403 9.56777 36.5626 11.8475 36.5351 14.1009C36.5232 15.0841 36.6251 16.0722 36.8361 17.0348C37.0576 18.0449 37.3828 19.0513 37.9337 19.9465ZM44.099 22.2278C44.0917 22.2274 44.0843 22.2271 44.077 22.2267C43.9535 22.2202 44.0496 22.2238 44.099 22.2278ZM49.1871 20.7871C49.2098 20.7714 49.2554 20.7412 49.1871 20.7871V20.7871ZM38.2662 12.5358C38.3603 11.4469 38.5309 10.3632 38.7882 9.2981C39.2256 7.48719 39.9499 5.66677 41.0304 4.09464C41.1522 3.91744 41.2803 3.74476 41.4106 3.57313C41.419 3.56207 41.4241 3.55515 41.4275 3.55059C41.4311 3.54623 41.4363 3.53987 41.4437 3.53069C41.4779 3.48841 41.5121 3.44612 41.5468 3.40417C41.6154 3.32129 41.6853 3.23939 41.7566 3.15858C42.0167 2.86374 42.2951 2.58316 42.5933 2.32263C42.7388 2.19551 42.8889 2.07324 43.0438 1.95653C43.1022 1.91256 43.1615 1.86997 43.221 1.82753C43.2309 1.8208 43.2631 1.79852 43.2933 1.77858C43.3338 1.75187 43.3746 1.7255 43.4158 1.69958C43.5721 1.60109 43.7326 1.50858 43.8971 1.42295C43.9751 1.38236 44.054 1.34323 44.1337 1.30583C44.1703 1.28868 44.207 1.27186 44.2439 1.25538C44.2597 1.24839 44.2746 1.24218 44.2879 1.23695C44.2802 1.23947 44.2718 1.24222 44.2622 1.2453C44.2752 1.24112 44.2879 1.23631 44.3008 1.23198C44.3216 1.22408 44.3361 1.21934 44.3392 1.2187C44.4831 1.16814 44.624 1.1093 44.7706 1.06464C44.853 1.03955 44.9361 1.01626 45.0196 0.994855C45.0419 0.989136 45.0646 0.984095 45.0872 0.978828C45.1024 0.975517 45.1176 0.972131 45.1328 0.969159C45.302 0.935902 45.4729 0.910432 45.6447 0.892975C45.6557 0.891847 45.6827 0.889589 45.708 0.887445C45.7149 0.887069 45.7209 0.88673 45.7252 0.886505C45.8223 0.881915 45.9196 0.879846 46.0168 0.880523C46.0836 0.880974 46.1503 0.883796 46.217 0.886204C46.2223 0.886881 46.2281 0.887633 46.2351 0.888498C46.3683 0.904563 46.5008 0.921455 46.6326 0.946398C46.6543 0.950499 46.6759 0.955088 46.6976 0.959377C46.7479 0.972846 46.7987 0.984998 46.8489 0.999068C46.975 1.03439 47.0996 1.07457 47.2224 1.11919C47.2702 1.13654 47.3174 1.15531 47.3649 1.17337C47.3652 1.17356 47.3654 1.17363 47.3658 1.17382C47.3908 1.1856 47.4167 1.19602 47.4419 1.20738C47.5595 1.26039 47.6753 1.31727 47.7889 1.37758C47.894 1.43333 47.9974 1.4921 48.099 1.55346C48.1457 1.58167 48.192 1.61045 48.2379 1.63972C48.2609 1.65436 48.2837 1.66907 48.3065 1.68393C48.305 1.68295 48.3488 1.71218 48.3746 1.72923C48.3961 1.74458 48.453 1.78457 48.4665 1.79439C48.5171 1.83114 48.5672 1.8685 48.6168 1.9065C48.715 1.98178 48.8112 2.05928 48.9055 2.13892C49.0763 2.28316 49.2407 2.43414 49.3987 2.59091C49.5548 2.74576 49.7047 2.90625 49.8482 3.07171C49.9137 3.14729 49.977 3.22445 50.0406 3.30146C50.0446 3.30628 50.052 3.31561 50.0586 3.32389C50.0661 3.33356 50.0737 3.34319 50.0812 3.35293C50.1115 3.39285 50.1421 3.43269 50.1719 3.47294C50.8092 4.33256 51.3032 5.31087 51.753 6.26815C52.7774 8.4479 53.4319 10.8072 53.314 13.209C53.2172 15.1797 52.549 17.0725 51.3392 18.7043C51.0849 19.0473 50.7654 19.4142 50.4173 19.758C50.0568 20.1142 49.6673 20.4438 49.2518 20.7411C49.2298 20.7569 49.2077 20.7725 49.1855 20.7882C49.1808 20.7914 49.1757 20.7947 49.1699 20.7986C49.1224 20.8305 49.0748 20.8622 49.0268 20.8935C48.9144 20.9664 48.8004 21.0371 48.6848 21.1053C48.4603 21.2378 48.2299 21.3611 47.9943 21.4747C47.8799 21.5299 47.7643 21.5829 47.6476 21.6334C47.6024 21.653 47.4833 21.6996 47.5966 21.6556C47.5228 21.6843 47.4494 21.7139 47.3753 21.7416C47.1418 21.8289 46.9043 21.9061 46.6635 21.9728C46.5986 21.9908 46.5334 22.008 46.468 22.0245C46.4577 22.0271 46.4269 22.0349 46.3977 22.0422C46.4126 22.0376 46.2659 22.0713 46.2406 22.0764C46.174 22.0899 46.1073 22.1025 46.0404 22.1144C45.7819 22.1605 45.5212 22.1957 45.2594 22.2197C45.2363 22.2218 45.2131 22.2236 45.19 22.2257C45.1403 22.2285 45.0905 22.2315 45.0408 22.2338C44.9044 22.2399 44.7679 22.2429 44.6314 22.243C44.5049 22.2431 44.3783 22.2406 44.2519 22.2355C44.2043 22.2336 44.1567 22.2309 44.1092 22.2283C44.0758 22.223 44.0393 22.2234 44.0062 22.2204C43.7467 22.1964 43.4884 22.1611 43.2325 22.114C43.1759 22.1036 43.1194 22.0926 43.0631 22.081C43.0619 22.0808 43.0585 22.0799 43.0545 22.0789C43.0507 22.0791 43.0373 22.0768 43.0082 22.0697C42.9994 22.0675 42.9907 22.0652 42.982 22.063C42.9806 22.063 42.9792 22.063 42.9789 22.0633C42.9792 22.063 42.9799 22.0628 42.9803 22.0626C42.8604 22.0329 42.7409 22.0021 42.6225 21.9675C42.5046 21.933 42.3877 21.8958 42.2718 21.8558C42.2185 21.8374 42.1655 21.8184 42.1127 21.7988C42.0863 21.789 42.06 21.7791 42.0338 21.769C42.026 21.766 41.9932 21.753 41.9667 21.7425C41.9378 21.73 41.8787 21.705 41.8646 21.6987C41.8137 21.676 41.7631 21.6528 41.7128 21.6289C41.5959 21.5734 41.4807 21.5146 41.3675 21.4525C41.2628 21.395 41.1599 21.3347 41.0589 21.2716C41.0046 21.2376 40.9512 21.2024 40.8979 21.1672C40.8972 21.1667 40.8967 21.1664 40.8961 21.166C40.8799 21.1544 40.8636 21.1429 40.8475 21.1311C40.6483 20.9865 40.4604 20.8294 40.2823 20.6619C40.1371 20.5225 39.9451 20.3123 39.8531 20.194C39.8573 20.199 39.7981 20.12 39.784 20.1007C39.7485 20.0519 39.7137 20.0027 39.6798 19.953C39.611 19.8522 39.5455 19.7494 39.4829 19.645C39.2327 19.2268 39.0305 18.7834 38.8636 18.3297C38.5281 17.4179 38.3432 16.4942 38.2474 15.5217C38.1492 14.5273 38.1803 13.53 38.2662 12.5358Z" fill="#383838"/>
<path d="M42.9795 22.0638C42.98 22.0639 42.9806 22.064 42.9811 22.0641C42.9923 22.064 43.0347 22.0733 43.0536 22.0773C43.0645 22.0766 42.9927 22.0575 42.9795 22.0638Z" fill="#383838"/>
<path d="M69.9894 26.7513C69.9432 25.4669 69.7556 24.1889 69.4717 22.933C69.2859 22.1115 69.0342 21.3327 68.6382 20.5788C68.2211 19.7845 67.6708 19.0379 66.9611 18.4546C66.1882 17.8192 65.2639 17.4361 64.2611 17.2691C62.4301 16.9642 60.5166 17.3106 58.8997 18.167C57.2072 19.0633 55.8097 20.4067 54.6703 21.8803C53.2803 23.6781 52.2347 25.7155 51.4809 27.8234C50.7789 29.7862 50.3921 32.0232 50.893 34.071C51.0099 34.549 51.1876 35.0098 51.4318 35.4426C52.5046 37.2967 54.5976 38.3631 56.7122 38.7992C59.0896 39.2894 61.6782 38.9864 63.8457 37.9332C65.7658 37.0001 67.3679 35.5031 68.4133 33.7148C69.6494 31.6004 70.0755 29.1474 69.9894 26.7513ZM58.7283 38.5738C58.7279 38.5737 58.7749 38.5759 58.8057 38.5773C58.7786 38.5782 58.7476 38.5788 58.7283 38.5738ZM67.6158 31.8992C66.9392 33.7846 65.7033 35.4677 64.0602 36.7094C63.2807 37.2985 62.3614 37.7975 61.4602 38.1179C61.266 38.1869 60.9812 38.2729 60.7486 38.3339C60.6261 38.3659 60.5026 38.3933 60.3794 38.4228C60.3778 38.4232 60.3767 38.4234 60.3753 38.4238C60.3554 38.4278 60.3355 38.4317 60.3156 38.4356C60.2385 38.4506 60.1612 38.4647 60.0837 38.4778C59.9572 38.4992 59.8302 38.5169 59.7029 38.5343C59.6946 38.5354 59.6877 38.5364 59.6818 38.5372C59.6762 38.5377 59.6698 38.5383 59.6622 38.539C59.5828 38.5467 59.5034 38.5543 59.4237 38.5604C59.367 38.5647 59.3102 38.5685 59.2535 38.5718C59.2445 38.5723 59.2356 38.5727 59.2267 38.5731C59.1004 38.5664 58.9697 38.5784 58.8431 38.5764C58.8352 38.5763 58.8249 38.5766 58.8135 38.577C58.8103 38.5768 58.8072 38.5766 58.8029 38.5764C58.7454 38.573 58.6879 38.5706 58.6305 38.567C58.5635 38.5626 58.4964 38.5576 58.4294 38.5518C58.414 38.5505 58.3651 38.546 58.3258 38.5424C58.3161 38.5405 58.1899 38.5261 58.1668 38.5229C58.1095 38.515 58.0524 38.5066 57.9953 38.4977C57.8747 38.4789 57.755 38.4565 57.6352 38.4336C57.6607 38.438 57.5402 38.4133 57.5095 38.4062C57.4532 38.3933 57.3972 38.3797 57.3412 38.3657C57.2108 38.333 57.0812 38.2974 56.9524 38.2589C56.6855 38.1792 56.5499 38.1319 56.2971 38.0298C55.3833 37.6607 54.5445 37.1375 53.8668 36.4445C53.5352 36.1054 53.2491 35.7299 53.0145 35.3243C52.5258 34.458 52.3589 33.4458 52.3283 32.4737C52.2959 31.444 52.421 30.4092 52.6524 29.4039C52.8867 28.3858 53.2542 27.3972 53.6689 26.4337C54.0983 25.4362 54.6006 24.4673 55.1805 23.5408C56.1849 21.9363 57.4276 20.4281 58.9697 19.258C59.6051 18.7758 60.2828 18.366 61.0352 18.0513C61.1214 18.0153 61.2083 17.9807 61.2958 17.9476C61.3305 17.9345 61.3653 17.9219 61.4002 17.9093C61.4127 17.9052 61.466 17.8868 61.4889 17.8793C61.6676 17.8207 61.8488 17.7687 62.032 17.7243C62.0722 17.7145 62.1125 17.7057 62.1528 17.6961C62.1543 17.6958 62.1554 17.6955 62.1568 17.6952C62.1602 17.6946 62.1638 17.6939 62.1677 17.6932C62.2613 17.6756 62.3549 17.6589 62.4492 17.6448C62.4864 17.6393 62.5236 17.6344 62.5609 17.6293C62.6472 17.622 62.7335 17.6156 62.82 17.6095C62.8521 17.609 62.8841 17.6083 62.9161 17.6083C62.9519 17.6082 62.9876 17.6088 63.0233 17.6092C63.1012 17.6143 63.1788 17.6205 63.2565 17.6272C63.3021 17.6337 63.3478 17.6398 63.3933 17.647C63.4703 17.6593 63.5511 17.6846 63.6286 17.6897C63.6202 17.6892 63.6131 17.6887 63.606 17.6882C63.6177 17.6897 63.629 17.6916 63.6382 17.6938C63.6837 17.7046 63.7291 17.716 63.7743 17.7281C64.0209 17.7935 64.1119 17.8247 64.3514 17.9322C65.1832 18.3056 65.8567 18.9322 66.3873 19.6371C67.5203 21.1419 67.9106 22.9495 68.1669 24.7517C68.5055 27.1333 68.4381 29.6079 67.6158 31.8992Z" fill="#383838"/>
<path d="M63.6068 17.6839C63.4876 17.678 63.5507 17.6786 63.6068 17.6839V17.6839Z" fill="#383838"/>
</svg>
