<svg width="40" height="40" viewBox="0 0 40 40" fill="none" xmlns="http://www.w3.org/2000/svg">
<path d="M31.25 16.25C31.25 13.2663 30.0647 10.4048 27.955 8.29505C25.8452 6.18526 22.9837 5 20 5C17.0163 5 14.1548 6.18526 12.045 8.29505C9.93526 10.4048 8.75 13.2663 8.75 16.25C8.75 20.865 12.4425 26.88 20 34.085C27.5575 26.88 31.25 20.865 31.25 16.25ZM20 37.5C10.8325 29.1675 6.25 22.0825 6.25 16.25C6.25 12.6033 7.69866 9.10591 10.2773 6.52728C12.8559 3.94866 16.3533 2.5 20 2.5C23.6467 2.5 27.1441 3.94866 29.7227 6.52728C32.3013 9.10591 33.75 12.6033 33.75 16.25C33.75 22.0825 29.1675 29.1675 20 37.5Z" fill="#474747"/>
<path d="M20 17.5C20.663 17.5 21.2989 17.2366 21.7678 16.7678C22.2366 16.2989 22.5 15.663 22.5 15C22.5 14.337 22.2366 13.7011 21.7678 13.2322C21.2989 12.7634 20.663 12.5 20 12.5C19.337 12.5 18.7011 12.7634 18.2322 13.2322C17.7634 13.7011 17.5 14.337 17.5 15C17.5 15.663 17.7634 16.2989 18.2322 16.7678C18.7011 17.2366 19.337 17.5 20 17.5ZM20 20C18.6739 20 17.4021 19.4732 16.4645 18.5355C15.5268 17.5979 15 16.3261 15 15C15 13.6739 15.5268 12.4021 16.4645 11.4645C17.4021 10.5268 18.6739 10 20 10C21.3261 10 22.5979 10.5268 23.5355 11.4645C24.4732 12.4021 25 13.6739 25 15C25 16.3261 24.4732 17.5979 23.5355 18.5355C22.5979 19.4732 21.3261 20 20 20ZM33.5 27.5L37.5 37.5H26.25V35H13.75V37.5H2.5L6.5 27.5H33.5ZM30.8075 27.5H9.1925L6.1925 35H33.8075L30.8075 27.5Z" fill="#474747"/>
</svg>
