<svg width="40" height="40" viewBox="0 0 40 40" fill="none" xmlns="http://www.w3.org/2000/svg">
<path d="M16.0903 10.3883C15.7372 9.21172 15.4888 7.99141 15.3544 6.73516C15.2247 5.50078 14.1481 4.58203 12.906 4.58203H7.14971C5.66846 4.58203 4.52783 5.86172 4.65752 7.33672C5.97002 22.193 17.806 34.0289 32.6622 35.3414C34.1372 35.4711 35.4169 34.3351 35.4169 32.8539V27.7211C35.4169 25.8477 34.4981 24.7742 33.2638 24.6445C32.0091 24.5102 30.7872 24.2617 29.6106 23.9086C28.1716 23.4773 26.6138 23.8836 25.5513 24.9461L23.0888 27.4102C18.6497 25.0086 14.9903 21.3492 12.5888 16.9102L15.0528 14.4461C16.1153 13.3852 16.5216 11.8273 16.0903 10.3883Z" stroke="#474747" stroke-width="2.08333" stroke-linecap="round" stroke-linejoin="round"/>
</svg>
