<svg width="37" height="37" viewBox="0 0 37 37" fill="none" xmlns="http://www.w3.org/2000/svg">
<path d="M19.2588 1.18906C21.1515 1.16016 23.0305 1.17519 24.9082 1.16016C24.9706 3.5085 25.9234 5.62213 27.4392 7.18769L27.4369 7.18538C29.0684 8.65497 31.1913 9.60772 33.5315 9.76959L33.5639 9.77191V15.5948C31.3531 15.5393 29.2742 15.0294 27.3999 14.1529L27.4947 14.1923C26.5882 13.7563 25.8216 13.3089 25.0932 12.8094L25.1533 12.8487C25.1395 17.0678 25.1672 21.287 25.1244 25.4911C25.0053 27.6337 24.2931 29.5877 23.1507 31.2192L23.1738 31.1833C21.2637 33.919 18.1696 35.7147 14.6511 35.8211H14.6349C14.4927 35.828 14.325 35.8315 14.1562 35.8315C12.1559 35.8315 10.2863 35.2742 8.69295 34.3064L8.7392 34.333C5.83933 32.5882 3.83902 29.6028 3.46902 26.1305L3.46439 26.0831C3.43549 25.3605 3.42161 24.6378 3.45052 23.9302C4.01708 18.4045 8.6467 14.1298 14.2742 14.1298C14.9066 14.1298 15.5264 14.1842 16.1288 14.2871L16.064 14.2778C16.093 16.4157 16.0062 18.5548 16.0062 20.6927C15.5171 20.5158 14.9529 20.4129 14.3644 20.4129C12.2045 20.4129 10.3672 21.7934 9.68733 23.7209L9.67692 23.7556C9.52314 24.2493 9.43411 24.817 9.43411 25.4044C9.43411 25.6426 9.44914 25.8785 9.47689 26.1097L9.47458 26.082C9.85845 28.4477 11.8865 30.2329 14.332 30.2329C14.4025 30.2329 14.4719 30.2317 14.5413 30.2283H14.5309C16.2225 30.1774 17.6909 29.2674 18.5211 27.9227L18.5326 27.9019C18.8414 27.4718 19.053 26.9515 19.1235 26.3861L19.1246 26.3699C19.2692 23.7833 19.2114 21.2118 19.2252 18.6253C19.2391 12.8024 19.2114 6.99344 19.2541 1.18559L19.2588 1.18906Z" fill="#474747"/>
</svg>
